<svg fill="#666666" xmlns="http://www.w3.org/2000/svg" xmlns:xlink="http://www.w3.org/1999/xlink" version="1.1" x="0px" y="0px" viewBox="0 0 100 100" enable-background="new 0 0 100 100" xml:space="preserve"><path d="M79.801,35.467C79.8,19.034,66.432,5.666,50.001,5.666c-16.433,0-29.802,13.368-29.802,29.801  c0,15.59,12.034,28.413,27.301,29.688V78.05H35.811v5H47.5v10.784h5V83.05h11.689v-5H52.5V65.155  C67.767,63.88,79.801,51.057,79.801,35.467z M25.199,35.467c0-13.675,11.126-24.801,24.802-24.801  c13.674,0,24.799,11.126,24.8,24.801c0,13.675-11.126,24.801-24.801,24.801S25.199,49.142,25.199,35.467z"></path></svg>