<svg fill="#666666" xmlns="http://www.w3.org/2000/svg" xmlns:xlink="http://www.w3.org/1999/xlink" version="1.1" x="0px" y="0px" viewBox="0 0 100 100" enable-background="new 0 0 100 100" xml:space="preserve"><path d="M71.706,4.083v6l13.969,0L65.329,30.429c-6.715-5.728-15.151-8.858-24.073-8.858c-9.93,0-19.266,3.867-26.286,10.888  c-14.492,14.494-14.492,38.077,0,52.57c7.021,7.021,16.356,10.888,26.286,10.888c9.929,0,19.264-3.867,26.285-10.888  c13.778-13.779,14.447-35.767,2.028-50.355l20.348-20.348l-0.001,13.968h6l0.001-24.21L71.706,4.083z M63.299,80.786  c-5.889,5.888-13.717,9.131-22.043,9.131c-8.327,0-16.155-3.243-22.044-9.13c-12.153-12.154-12.153-31.931,0-44.085  c5.888-5.888,13.717-9.13,22.044-9.13c8.326,0,16.155,3.243,22.043,9.13C75.452,48.855,75.452,68.632,63.299,80.786z"></path></svg>