<?xml version="1.0" encoding="utf-8"?>
<!-- Generator: Adobe Illustrator 18.0.0, SVG Export Plug-In . SVG Version: 6.00 Build 0)  -->
<!DOCTYPE svg PUBLIC "-//W3C//DTD SVG 1.1//EN" "http://www.w3.org/Graphics/SVG/1.1/DTD/svg11.dtd">
<svg version="1.1"
	 id="Layer_1" xmlns:dc="http://purl.org/dc/elements/1.1/" xmlns:cc="http://creativecommons.org/ns#" xmlns:rdf="http://www.w3.org/1999/02/22-rdf-syntax-ns#" xmlns:svg="http://www.w3.org/2000/svg" xmlns:sodipodi="http://sodipodi.sourceforge.net/DTD/sodipodi-0.dtd" xmlns:inkscape="http://www.inkscape.org/namespaces/inkscape"
	 xmlns="http://www.w3.org/2000/svg" xmlns:xlink="http://www.w3.org/1999/xlink" x="0px" y="0px" viewBox="0 0 300 300"
	 enable-background="new 0 0 300 300" xml:space="preserve">
<g transform="translate(0,-952.36218)">
	<path fill="#666666" d="M150,976.4c-69.6,0-126,56.4-126,126s56.4,126,126,126s126-56.4,126-126S219.6,976.4,150,976.4z
		 M118.1,1045.3c2.3-0.1,4.7,0.5,7,1.8l75,43.4c4.1,2.4,6.8,6.7,6.8,11.8c0,5.1-2.8,9.4-6.8,11.8l-75,43.5
		c-9.3,5.1-19.9-1.4-20.2-12V1059C105.2,1051,111.2,1045.4,118.1,1045.3z"/>
</g>
</svg>
